Coordinates
version=1
nRows=65
nColumns=12
inDegrees=yes

Units are S.I. units (second, meters, Newtons, ...)
Angles are in degrees

endheader
time	SC_y	SC_z	SC_x	AC_y	AC_z	AC_x	GH_y	GH_z	GH_yy	EL_x	PS_y
       0.0              -57.18          39.94           82.3          63.27         -7.184          19.33         -103.9          21.92         -52.81          120.4          158.3
   0.02549              -57.18          39.94           82.3          63.27         -7.184          19.33         -103.9          21.92          -52.8          120.4          158.3
   0.05098              -57.18          39.94           82.3          63.27         -7.184          19.33         -103.9          21.92         -52.79          120.4          158.2
   0.07647              -57.18          39.94          82.29          63.26         -7.185          19.33         -103.9          21.91         -52.77          120.4          158.2
     0.102              -57.18          39.93          82.29          63.26         -7.185          19.32         -103.8          21.91         -52.76          120.4          158.2
    0.1275              -57.18          39.93          82.29          63.26         -7.186          19.32         -103.8           21.9         -52.74          120.4          158.1
    0.1529              -57.18          39.93          82.28          63.25         -7.186          19.32         -103.8           21.9         -52.73          120.4          158.1
    0.1784              -57.18          39.93          82.28          63.25         -7.187          19.32         -103.8          21.89         -52.71          120.4          158.1
    0.2039              -57.18          39.93          82.27          63.25         -7.187          19.32         -103.7          21.89         -52.69          120.4          158.0
    0.2294              -57.18          39.92          82.27          63.24         -7.188          19.32         -103.7          21.88         -52.68          120.4          158.0
    0.2549              -57.18          39.92          82.26          63.24         -7.189          19.31         -103.7          21.88         -52.65          120.4          158.0
    0.2804              -57.18          39.92          82.26          63.23          -7.19          19.31         -103.6          21.87         -52.63          120.4          157.9
    0.3059              -57.18          39.91          82.25          63.23          -7.19          19.31         -103.6          21.87         -52.61          120.4          157.9
    0.3314              -57.18          39.91          82.24          63.22         -7.191          19.31         -103.5          21.86         -52.58          120.4          157.8
    0.3569              -57.18          39.91          82.24          63.21         -7.192           19.3         -103.5          21.85         -52.55          120.4          157.8
    0.3824              -57.18           39.9          82.23          63.21         -7.193           19.3         -103.5          21.84         -52.52          120.4          157.7
    0.4079              -57.19           39.9          82.22           63.2         -7.194           19.3         -103.4          21.83         -52.49          120.4          157.7
    0.4333              -57.19           39.9          82.21          63.19         -7.195           19.3         -103.3          21.82         -52.46          120.4          157.6
    0.4588              -57.19          39.89           82.2          63.18         -7.197          19.29         -103.3          21.81         -52.42          120.4          157.5
    0.4843              -57.19          39.88          82.19          63.17         -7.198          19.29         -103.2           21.8         -52.37          120.4          157.4
    0.5098              -57.19          39.88          82.17          63.16           -7.2          19.28         -103.1          21.79         -52.33          120.4          157.3
    0.5353              -57.19          39.87          82.16          63.15         -7.201          19.28         -103.0          21.77         -52.27          120.4          157.2
    0.5608               -57.2          39.86          82.15          63.14         -7.203          19.27         -102.9          21.76         -52.22          120.4          157.1
    0.5863               -57.2          39.86          82.13          63.13         -7.205          19.27         -102.8          21.74         -52.15          120.4          157.0
    0.6118               -57.2          39.85          82.11          63.11         -7.208          19.26         -102.7          21.72         -52.08          120.4          156.9
    0.6373               -57.2          39.84          82.09          63.09          -7.21          19.25         -102.6           21.7          -52.0          120.4          156.7
    0.6628              -57.21          39.83          82.06          63.07         -7.213          19.24         -102.4          21.67         -51.92          120.4          156.5
    0.6882              -57.21          39.81          82.04          63.05         -7.217          19.24         -102.3          21.64         -51.82          120.4          156.3
    0.7137              -57.21           39.8          82.01          63.02          -7.22          19.22         -102.1          21.61          -51.7          120.4          156.1
    0.7392              -57.22          39.78          81.97           63.0         -7.225          19.21         -101.9          21.58         -51.58          120.4          155.9
    0.7647              -57.22          39.76          81.93          62.96         -7.229           19.2         -101.7          21.53         -51.43          120.4          155.6
    0.7902              -57.23          39.74          81.89          62.93         -7.235          19.18         -101.4          21.49         -51.26          120.4          155.3
    0.8157              -57.23          39.72          81.84          62.88         -7.241          19.17         -101.1          21.43         -51.07          120.4          154.9
    0.8412              -57.24          39.69          81.78          62.83         -7.249          19.14         -100.7          21.37         -50.85          120.4          154.4
    0.8667              -57.25          39.65          81.71          62.77         -7.258          19.12         -100.3           21.3         -50.58          120.4          153.9
    0.8922              -57.26          39.61          81.62           62.7         -7.268          19.09         -99.75          21.21         -50.28          120.4          153.3
    0.9177              -57.27          39.56          81.53          62.62          -7.28          19.06         -99.15          21.11         -49.91          120.5          152.6
    0.9432              -57.29          39.51          81.41          62.52         -7.295          19.01         -98.43          20.98         -49.47          120.5          151.8
    0.9686              -57.31          39.44          81.27          62.41         -7.312          18.96         -97.55          20.83         -48.94          120.5          150.7
    0.9941              -57.33          39.35          81.09          62.26         -7.334           18.9         -96.48          20.65         -48.29          120.5          149.5
      1.02              -57.35          39.25          80.88          62.08         -7.361          18.83         -95.16          20.42         -47.48          120.5          147.9
     1.045              -57.39          39.12          80.61          61.86         -7.394          18.73         -93.52          20.14         -46.48          120.6          145.9
     1.071              -57.43          38.96          80.27          61.57         -7.436          18.62         -91.44          19.79         -45.22          120.6          143.5
     1.096              -57.48          38.75          79.84          61.22         -7.489          18.47         -88.81          19.34         -43.62          120.7          140.4
     1.122              -57.55          38.48          79.29          60.76         -7.557          18.27         -85.44          18.76         -41.57          120.7          136.4
     1.147              -57.64          38.14          78.58          60.17         -7.645          18.03         -81.11          18.02         -38.93          120.8          131.2
     1.173              -57.76          37.71          77.68          59.41         -7.757          17.71         -75.58          17.08         -35.57          120.9          124.7
     1.198               -57.9          37.16          76.55          58.47         -7.897          17.31         -68.63          15.89         -31.34          121.1          116.4
     1.224              -58.07          36.49          75.17          57.31         -8.068          16.83         -60.16          14.44         -26.18          121.2          106.4
     1.249              -58.27          35.71          73.57          55.98         -8.267          16.27         -50.34          12.76         -20.21          121.4          94.73
     1.275              -58.49          34.88          71.83          54.53         -8.482          15.66          -39.7          10.94         -13.74          121.7          82.12
       1.3              -58.71          34.04           70.1          53.08         -8.697          15.05         -29.07          9.123         -7.273          121.9           69.5
     1.326              -58.91          33.26           68.5          51.75         -8.895          14.49         -19.25          7.444         -1.299          122.1          57.86
     1.351              -59.08          32.59          67.11          50.59         -9.067          14.01         -10.78          5.995          3.856          122.3          47.81
     1.376              -59.23          32.05          65.98          49.65         -9.207          13.61          -3.83          4.806          8.085          122.4          39.57
     1.402              -59.34          31.61          65.08          48.89         -9.319           13.3          1.699          3.861          11.45          122.5          33.01
     1.427              -59.43          31.27          64.37           48.3         -9.407          13.05          6.027          3.121          14.08          122.6          27.88
     1.453               -59.5           31.0          63.82          47.85         -9.475          12.86            9.4          2.544          16.13          122.7          23.88
     1.478              -59.55           30.8          63.39          47.49         -9.528          12.71          12.04          2.093          17.74          122.7          20.75
     1.504              -59.59          30.63          63.05           47.2          -9.57          12.59          14.11          1.739           19.0          122.8          18.29
     1.529              -59.63           30.5          62.79          46.98         -9.603           12.5          15.75          1.457           20.0          122.8          16.34
     1.555              -59.66           30.4          62.57           46.8          -9.63          12.42          17.07          1.232           20.8          122.8          14.78
      1.58              -59.68          30.31           62.4          46.66         -9.652          12.36          18.14          1.049          21.45          122.8          13.51
     1.606               -59.7          30.24          62.25          46.54         -9.669          12.31          19.02         0.8992          21.99          122.9          12.47
     1.631              -59.71          30.19          62.14          46.44         -9.684          12.27          19.74         0.7755          22.43          122.9          11.61
